G04 MADE WITH FRITZING*
G04 WWW.FRITZING.ORG*
G04 DOUBLE SIDED*
G04 HOLES PLATED*
G04 CONTOUR ON CENTER OF CONTOUR VECTOR*
%ASAXBY*%
%FSLAX23Y23*%
%MOIN*%
%OFA0B0*%
%SFA1.0B1.0*%
%ADD10C,0.070000*%
%ADD11C,0.078000*%
%ADD12C,0.075000*%
%ADD13R,0.069972X0.070000*%
%LNCOPPER0*%
G90*
G70*
G54D10*
X902Y1852D03*
X902Y1752D03*
X902Y1652D03*
X902Y1552D03*
X902Y1452D03*
X902Y1352D03*
X902Y1252D03*
X902Y1152D03*
X902Y1052D03*
X902Y952D03*
X902Y852D03*
X902Y752D03*
X902Y652D03*
X902Y552D03*
X902Y452D03*
X302Y1852D03*
X302Y1752D03*
X302Y1652D03*
X302Y1552D03*
X302Y1452D03*
X302Y1352D03*
X302Y1252D03*
X302Y1152D03*
X302Y1052D03*
X302Y952D03*
X302Y852D03*
X302Y752D03*
X302Y652D03*
X302Y552D03*
X302Y452D03*
X902Y1852D03*
X902Y1752D03*
X902Y1652D03*
X902Y1552D03*
X902Y1452D03*
X902Y1352D03*
X902Y1252D03*
X902Y1152D03*
X902Y1052D03*
X902Y952D03*
X902Y852D03*
X902Y752D03*
X902Y652D03*
X902Y552D03*
X902Y452D03*
X302Y1852D03*
X302Y1752D03*
X302Y1652D03*
X302Y1552D03*
X302Y1452D03*
X302Y1352D03*
X302Y1252D03*
X302Y1152D03*
X302Y1052D03*
X302Y952D03*
X302Y852D03*
X302Y752D03*
X302Y652D03*
X302Y552D03*
X302Y452D03*
G54D11*
X1802Y552D03*
X1802Y452D03*
X1802Y352D03*
X1802Y552D03*
X1802Y452D03*
X1802Y352D03*
X1602Y552D03*
X1602Y452D03*
X1602Y352D03*
X1602Y552D03*
X1602Y452D03*
X1602Y352D03*
X1402Y552D03*
X1402Y452D03*
X1402Y352D03*
X1402Y552D03*
X1402Y452D03*
X1402Y352D03*
X1202Y552D03*
X1202Y452D03*
X1202Y352D03*
X1202Y552D03*
X1202Y452D03*
X1202Y352D03*
X1802Y1352D03*
X1802Y1252D03*
X1802Y1152D03*
X1802Y1052D03*
X1802Y952D03*
X1802Y1352D03*
X1802Y1252D03*
X1802Y1152D03*
X1802Y1052D03*
X1802Y952D03*
G54D12*
X1502Y1052D03*
X1102Y1052D03*
X1502Y1052D03*
X1102Y1052D03*
X1502Y1152D03*
X1102Y1152D03*
X1502Y1152D03*
X1102Y1152D03*
X1502Y1252D03*
X1102Y1252D03*
X1502Y1252D03*
X1102Y1252D03*
X1502Y952D03*
X1102Y952D03*
X1502Y952D03*
X1102Y952D03*
X1558Y1652D03*
X1302Y1652D03*
X1558Y1829D03*
X1302Y1829D03*
X1958Y1752D03*
X1702Y1752D03*
X1958Y1929D03*
X1702Y1929D03*
X1802Y2052D03*
X1414Y1953D03*
X1802Y2052D03*
X1414Y1953D03*
X2202Y1852D03*
X1802Y1852D03*
X2202Y1852D03*
X1802Y1852D03*
G54D13*
X902Y1852D03*
X902Y1852D03*
G04 End of Copper0*
M02*