G04 MADE WITH FRITZING*
G04 WWW.FRITZING.ORG*
G04 DOUBLE SIDED*
G04 HOLES PLATED*
G04 CONTOUR ON CENTER OF CONTOUR VECTOR*
%ASAXBY*%
%FSLAX23Y23*%
%MOIN*%
%OFA0B0*%
%SFA1.0B1.0*%
%ADD10C,0.070000*%
%ADD11C,0.075000*%
%ADD12C,0.078000*%
%ADD13R,0.069972X0.070000*%
%ADD14C,0.024000*%
%LNCOPPER1*%
G90*
G70*
G54D10*
X902Y1852D03*
X902Y1752D03*
X902Y1652D03*
X902Y1552D03*
X902Y1452D03*
X902Y1352D03*
X902Y1252D03*
X902Y1152D03*
X902Y1052D03*
X902Y952D03*
X902Y852D03*
X902Y752D03*
X902Y652D03*
X902Y552D03*
X902Y452D03*
X302Y1852D03*
X302Y1752D03*
X302Y1652D03*
X302Y1552D03*
X302Y1452D03*
X302Y1352D03*
X302Y1252D03*
X302Y1152D03*
X302Y1052D03*
X302Y952D03*
X302Y852D03*
X302Y752D03*
X302Y652D03*
X302Y552D03*
X302Y452D03*
X902Y1852D03*
X902Y1752D03*
X902Y1652D03*
X902Y1552D03*
X902Y1452D03*
X902Y1352D03*
X902Y1252D03*
X902Y1152D03*
X902Y1052D03*
X902Y952D03*
X902Y852D03*
X902Y752D03*
X902Y652D03*
X902Y552D03*
X902Y452D03*
X302Y1852D03*
X302Y1752D03*
X302Y1652D03*
X302Y1552D03*
X302Y1452D03*
X302Y1352D03*
X302Y1252D03*
X302Y1152D03*
X302Y1052D03*
X302Y952D03*
X302Y852D03*
X302Y752D03*
X302Y652D03*
X302Y552D03*
X302Y452D03*
G54D11*
X1502Y1052D03*
X1102Y1052D03*
X1502Y1052D03*
X1102Y1052D03*
X1502Y1152D03*
X1102Y1152D03*
X1502Y1152D03*
X1102Y1152D03*
X1502Y1252D03*
X1102Y1252D03*
X1502Y1252D03*
X1102Y1252D03*
X1502Y952D03*
X1102Y952D03*
X1502Y952D03*
X1102Y952D03*
G54D12*
X1802Y1352D03*
X1802Y1252D03*
X1802Y1152D03*
X1802Y1052D03*
X1802Y952D03*
X1802Y1352D03*
X1802Y1252D03*
X1802Y1152D03*
X1802Y1052D03*
X1802Y952D03*
X1202Y552D03*
X1202Y452D03*
X1202Y352D03*
X1202Y552D03*
X1202Y452D03*
X1202Y352D03*
X1402Y552D03*
X1402Y452D03*
X1402Y352D03*
X1402Y552D03*
X1402Y452D03*
X1402Y352D03*
X1602Y552D03*
X1602Y452D03*
X1602Y352D03*
X1602Y552D03*
X1602Y452D03*
X1602Y352D03*
X1802Y552D03*
X1802Y452D03*
X1802Y352D03*
X1802Y552D03*
X1802Y452D03*
X1802Y352D03*
G54D11*
X1558Y1652D03*
X1302Y1652D03*
X1558Y1829D03*
X1302Y1829D03*
X1958Y1752D03*
X1702Y1752D03*
X1958Y1929D03*
X1702Y1929D03*
X1802Y2052D03*
X1414Y1953D03*
X1802Y2052D03*
X1414Y1953D03*
X2202Y1852D03*
X1802Y1852D03*
X2202Y1852D03*
X1802Y1852D03*
G54D13*
X902Y1852D03*
X902Y1852D03*
G54D14*
X601Y2051D02*
X322Y1772D01*
D02*
X801Y2052D02*
X601Y2051D01*
D02*
X1102Y1353D02*
X1001Y1552D01*
D02*
X1001Y1552D02*
X1001Y1951D01*
D02*
X1001Y1951D02*
X801Y2052D01*
D02*
X1772Y1352D02*
X1102Y1353D01*
D02*
X1073Y952D02*
X931Y952D01*
D02*
X1772Y1252D02*
X1530Y1252D01*
D02*
X1772Y1152D02*
X1530Y1152D01*
D02*
X1772Y1052D02*
X1530Y1052D01*
D02*
X1772Y952D02*
X1530Y952D01*
D02*
X1073Y1052D02*
X931Y1052D01*
D02*
X1073Y1152D02*
X931Y1152D01*
D02*
X1073Y1252D02*
X931Y1252D01*
D02*
X1001Y552D02*
X1001Y353D01*
D02*
X1172Y552D02*
X1001Y552D01*
D02*
X1001Y353D02*
X802Y353D01*
D02*
X802Y1352D02*
X881Y1431D01*
D02*
X802Y353D02*
X802Y1352D01*
D02*
X1172Y451D02*
X1102Y451D01*
D02*
X703Y251D02*
X703Y1150D01*
D02*
X1102Y251D02*
X703Y251D01*
D02*
X703Y1150D02*
X322Y1531D01*
D02*
X1102Y451D02*
X1102Y251D01*
D02*
X1200Y153D02*
X151Y153D01*
D02*
X151Y153D02*
X151Y1601D01*
D02*
X1202Y322D02*
X1200Y153D01*
D02*
X151Y1601D02*
X281Y1731D01*
D02*
X1372Y552D02*
X1232Y552D01*
D02*
X1572Y552D02*
X1432Y552D01*
D02*
X1772Y552D02*
X1632Y552D01*
D02*
X1372Y452D02*
X1232Y452D01*
D02*
X1572Y452D02*
X1432Y452D01*
D02*
X1772Y452D02*
X1632Y452D01*
D02*
X1372Y352D02*
X1232Y352D01*
D02*
X1572Y352D02*
X1432Y352D01*
D02*
X1772Y352D02*
X1632Y352D01*
D02*
X2102Y1552D02*
X2102Y451D01*
D02*
X1974Y1729D02*
X2102Y1552D01*
D02*
X2102Y451D02*
X1832Y452D01*
D02*
X1903Y1650D02*
X1944Y1727D01*
D02*
X1602Y1650D02*
X1903Y1650D01*
D02*
X1586Y1651D02*
X1602Y1650D01*
D02*
X1200Y1853D02*
X1200Y1552D01*
D02*
X2001Y1552D02*
X2001Y751D01*
D02*
X1200Y1552D02*
X2001Y1552D01*
D02*
X2001Y751D02*
X931Y752D01*
D02*
X1274Y1835D02*
X1200Y1853D01*
D02*
X1102Y2052D02*
X1602Y2052D01*
D02*
X1602Y2052D02*
X1684Y1951D01*
D02*
X1102Y1552D02*
X1102Y2052D01*
D02*
X1200Y1451D02*
X1102Y1552D01*
D02*
X1903Y853D02*
X1903Y1451D01*
D02*
X931Y852D02*
X1903Y853D01*
D02*
X1903Y1451D02*
X1200Y1451D01*
D02*
X1436Y1934D02*
X1536Y1848D01*
D02*
X1932Y1916D02*
X1827Y1864D01*
D02*
X2182Y1872D02*
X2001Y2052D01*
D02*
X2001Y2052D02*
X1830Y2052D01*
D02*
X1832Y352D02*
X2202Y352D01*
D02*
X2202Y352D02*
X2202Y1823D01*
G04 End of Copper1*
M02*