; NON-PLATED HOLES START AT T1
; THROUGH (PLATED) HOLES START AT T100
M48
INCH
T100C0.035000
T101C0.036000
T102C0.038000
%
T100
X019576Y019289
X019576Y017517
X017017Y019289
X015576Y016517
X011017Y012517
X013017Y018289
X011017Y011517
X022017Y018517
X018017Y020517
X015017Y010517
X015017Y012517
X018017Y018517
X015017Y011517
X011017Y010517
X014142Y019527
X013017Y016517
X017017Y017517
X015017Y009517
X011017Y009517
X015576Y018289
T101
X009017Y008517
X009017Y009517
X009017Y016517
X009017Y004517
X003017Y017517
X003017Y014517
X003017Y008517
X003017Y011517
X009017Y012517
X003017Y012517
X003017Y013517
X009017Y005517
X003017Y007517
X009017Y014517
X009017Y018517
X009017Y015517
X009017Y007517
X003017Y009517
X003017Y016517
X009017Y006517
X003017Y005517
X003017Y018517
X003017Y006517
X009017Y010517
X003017Y010517
X009017Y013517
X003017Y004517
X003017Y015517
X009017Y011517
X009017Y017517
T102
X016017Y005517
X012017Y003517
X018017Y004517
X018017Y003517
X014017Y004517
X014017Y005517
X012017Y005517
X016017Y003517
X018017Y012517
X018017Y010517
X018017Y011517
X018017Y009517
X014017Y003517
X016017Y004517
X012017Y004517
X018017Y013517
X018017Y005517
T00
M30
